<mxfile host="app.diagrams.net" modified="2023-02-12T20:28:41.000Z" agent="5.0 (Windows NT 10.0; Win64; x64) AppleWebKit/537.36 (KHTML, like Gecko) Chrome/108.0.0.0 Safari/537.36 OPR/94.0.0.0" etag="DwOt06SNZS1syhWfo-3c" version="20.8.20" type="github">
  <diagram name="Страница 1" id="OuawEePTSQRZRiBqJ2yE">
    <mxGraphModel dx="2220" dy="766" grid="1" gridSize="10" guides="1" tooltips="1" connect="1" arrows="1" fold="1" page="1" pageScale="1" pageWidth="827" pageHeight="1169" math="0" shadow="0">
      <root>
        <mxCell id="0" />
        <mxCell id="1" parent="0" />
        <mxCell id="uUpJZm7nk99lA5vfuliC-1" value="Модель предметной области" style="shape=umlFrame;whiteSpace=wrap;html=1;width=180;height=20;boundedLbl=1;verticalAlign=middle;align=left;spacingLeft=5;" parent="1" vertex="1">
          <mxGeometry x="-80" y="136" width="917" height="474" as="geometry" />
        </mxCell>
        <mxCell id="uUpJZm7nk99lA5vfuliC-3" value="Пользователь" style="rounded=0;whiteSpace=wrap;html=1;fillColor=#ffcc99;strokeColor=#36393d;" parent="1" vertex="1">
          <mxGeometry x="70" y="220" width="120" height="20" as="geometry" />
        </mxCell>
        <mxCell id="uUpJZm7nk99lA5vfuliC-4" value="" style="rhombus;whiteSpace=wrap;html=1;fillColor=#ffcc99;strokeColor=#36393d;" parent="1" vertex="1">
          <mxGeometry x="594" y="240" width="20" height="20" as="geometry" />
        </mxCell>
        <mxCell id="uUpJZm7nk99lA5vfuliC-5" value="Семантика" style="rounded=0;whiteSpace=wrap;html=1;fillColor=#ffcc99;strokeColor=#36393d;" parent="1" vertex="1">
          <mxGeometry x="464" y="280" width="120" height="20" as="geometry" />
        </mxCell>
        <mxCell id="uUpJZm7nk99lA5vfuliC-7" value="Интерпретатор" style="rounded=0;whiteSpace=wrap;html=1;fillColor=#ffcc99;strokeColor=#36393d;" parent="1" vertex="1">
          <mxGeometry x="464" y="380" width="120" height="20" as="geometry" />
        </mxCell>
        <mxCell id="uUpJZm7nk99lA5vfuliC-8" value="Компилятор" style="rounded=0;whiteSpace=wrap;html=1;fillColor=#ffcc99;strokeColor=#36393d;" parent="1" vertex="1">
          <mxGeometry x="624" y="380" width="120" height="20" as="geometry" />
        </mxCell>
        <mxCell id="uUpJZm7nk99lA5vfuliC-10" value="" style="endArrow=none;html=1;rounded=0;exitX=1;exitY=0.5;exitDx=0;exitDy=0;entryX=0.5;entryY=0;entryDx=0;entryDy=0;" parent="1" source="uUpJZm7nk99lA5vfuliC-3" target="uUpJZm7nk99lA5vfuliC-4" edge="1">
          <mxGeometry width="50" height="50" relative="1" as="geometry">
            <mxPoint x="320" y="360" as="sourcePoint" />
            <mxPoint x="370" y="310" as="targetPoint" />
            <Array as="points">
              <mxPoint x="604" y="230" />
            </Array>
          </mxGeometry>
        </mxCell>
        <mxCell id="uUpJZm7nk99lA5vfuliC-11" value="" style="endArrow=none;html=1;rounded=0;exitX=0.5;exitY=0;exitDx=0;exitDy=0;entryX=0;entryY=0.5;entryDx=0;entryDy=0;" parent="1" source="uUpJZm7nk99lA5vfuliC-5" target="uUpJZm7nk99lA5vfuliC-4" edge="1">
          <mxGeometry width="50" height="50" relative="1" as="geometry">
            <mxPoint x="474" y="360" as="sourcePoint" />
            <mxPoint x="524" y="310" as="targetPoint" />
            <Array as="points">
              <mxPoint x="524" y="250" />
            </Array>
          </mxGeometry>
        </mxCell>
        <mxCell id="uUpJZm7nk99lA5vfuliC-12" value="" style="endArrow=none;html=1;rounded=0;exitX=0.5;exitY=0;exitDx=0;exitDy=0;entryX=1;entryY=0.5;entryDx=0;entryDy=0;" parent="1" target="uUpJZm7nk99lA5vfuliC-4" edge="1">
          <mxGeometry width="50" height="50" relative="1" as="geometry">
            <mxPoint x="684" y="280" as="sourcePoint" />
            <mxPoint x="584" y="260" as="targetPoint" />
            <Array as="points">
              <mxPoint x="684" y="250" />
            </Array>
          </mxGeometry>
        </mxCell>
        <mxCell id="uUpJZm7nk99lA5vfuliC-16" value="" style="endArrow=none;html=1;rounded=0;exitX=0.5;exitY=0;exitDx=0;exitDy=0;startArrow=diamondThin;startFill=1;entryX=0.505;entryY=1.037;entryDx=0;entryDy=0;entryPerimeter=0;" parent="1" source="uUpJZm7nk99lA5vfuliC-8" target="uUpJZm7nk99lA5vfuliC-64" edge="1">
          <mxGeometry width="50" height="50" relative="1" as="geometry">
            <mxPoint x="534" y="390" as="sourcePoint" />
            <mxPoint x="684" y="330" as="targetPoint" />
          </mxGeometry>
        </mxCell>
        <mxCell id="uUpJZm7nk99lA5vfuliC-18" value="" style="endArrow=none;html=1;rounded=0;entryX=0.998;entryY=-0.039;entryDx=0;entryDy=0;exitX=0.5;exitY=1;exitDx=0;exitDy=0;startArrow=diamondThin;startFill=1;entryPerimeter=0;" parent="1" source="uUpJZm7nk99lA5vfuliC-7" target="uUpJZm7nk99lA5vfuliC-64" edge="1">
          <mxGeometry width="50" height="50" relative="1" as="geometry">
            <mxPoint x="694" y="390" as="sourcePoint" />
            <mxPoint x="744" y="290" as="targetPoint" />
            <Array as="points">
              <mxPoint x="524" y="420" />
              <mxPoint x="764" y="420" />
              <mxPoint x="764" y="308" />
            </Array>
          </mxGeometry>
        </mxCell>
        <mxCell id="uUpJZm7nk99lA5vfuliC-20" value="" style="endArrow=none;html=1;rounded=0;startArrow=diamondThin;startFill=1;" parent="1" edge="1">
          <mxGeometry width="50" height="50" relative="1" as="geometry">
            <mxPoint x="524" y="380" as="sourcePoint" />
            <mxPoint x="524" y="300" as="targetPoint" />
          </mxGeometry>
        </mxCell>
        <mxCell id="uUpJZm7nk99lA5vfuliC-22" value="" style="endArrow=none;html=1;rounded=0;entryX=1;entryY=0.5;entryDx=0;entryDy=0;exitX=0;exitY=0.5;exitDx=0;exitDy=0;startArrow=diamondThin;startFill=1;" parent="1" source="uUpJZm7nk99lA5vfuliC-8" target="uUpJZm7nk99lA5vfuliC-5" edge="1">
          <mxGeometry width="50" height="50" relative="1" as="geometry">
            <mxPoint x="603.76" y="400" as="sourcePoint" />
            <mxPoint x="603.76" y="320" as="targetPoint" />
            <Array as="points">
              <mxPoint x="604" y="390" />
              <mxPoint x="604" y="290" />
            </Array>
          </mxGeometry>
        </mxCell>
        <mxCell id="uUpJZm7nk99lA5vfuliC-23" value="-Создатель DSL" style="text;html=1;strokeColor=none;fillColor=none;align=center;verticalAlign=middle;whiteSpace=wrap;rounded=0;" parent="1" vertex="1">
          <mxGeometry x="190" y="200" width="96" height="30" as="geometry" />
        </mxCell>
        <mxCell id="uUpJZm7nk99lA5vfuliC-24" value="" style="endArrow=none;html=1;rounded=0;entryX=0.5;entryY=1;entryDx=0;entryDy=0;" parent="1" source="uUpJZm7nk99lA5vfuliC-41" target="uUpJZm7nk99lA5vfuliC-3" edge="1">
          <mxGeometry width="50" height="50" relative="1" as="geometry">
            <mxPoint x="130" y="380" as="sourcePoint" />
            <mxPoint x="380" y="370" as="targetPoint" />
          </mxGeometry>
        </mxCell>
        <mxCell id="uUpJZm7nk99lA5vfuliC-27" value="-Пользователь DSL" style="text;html=1;strokeColor=none;fillColor=none;align=center;verticalAlign=middle;whiteSpace=wrap;rounded=0;" parent="1" vertex="1">
          <mxGeometry x="130" y="240" width="120" height="30" as="geometry" />
        </mxCell>
        <mxCell id="uUpJZm7nk99lA5vfuliC-41" value="Код программы на DSL" style="swimlane;fontStyle=1;align=center;verticalAlign=middle;childLayout=stackLayout;horizontal=1;startSize=29;horizontalStack=0;resizeParent=1;resizeParentMax=0;resizeLast=0;collapsible=0;marginBottom=0;html=1;fillColor=#ffcc99;strokeColor=#36393d;" parent="1" vertex="1">
          <mxGeometry x="60" y="420" width="140" height="54" as="geometry" />
        </mxCell>
        <mxCell id="uUpJZm7nk99lA5vfuliC-43" value="+ Текст программы" style="text;html=1;strokeColor=#36393d;fillColor=#ffcc99;align=left;verticalAlign=middle;spacingLeft=4;spacingRight=4;overflow=hidden;rotatable=0;points=[[0,0.5],[1,0.5]];portConstraint=eastwest;" parent="uUpJZm7nk99lA5vfuliC-41" vertex="1">
          <mxGeometry y="29" width="140" height="25" as="geometry" />
        </mxCell>
        <mxCell id="uUpJZm7nk99lA5vfuliC-44" value="Автоматный объект" style="swimlane;fontStyle=1;align=center;verticalAlign=middle;childLayout=stackLayout;horizontal=1;startSize=29;horizontalStack=0;resizeParent=1;resizeParentMax=0;resizeLast=0;collapsible=0;marginBottom=0;html=1;fillColor=#ffcc99;strokeColor=#36393d;" parent="1" vertex="1">
          <mxGeometry x="250" y="276" width="140" height="104" as="geometry" />
        </mxCell>
        <mxCell id="uUpJZm7nk99lA5vfuliC-45" value="+ Состояния" style="text;html=1;strokeColor=#36393d;fillColor=#ffcc99;align=left;verticalAlign=middle;spacingLeft=4;spacingRight=4;overflow=hidden;rotatable=0;points=[[0,0.5],[1,0.5]];portConstraint=eastwest;" parent="uUpJZm7nk99lA5vfuliC-44" vertex="1">
          <mxGeometry y="29" width="140" height="25" as="geometry" />
        </mxCell>
        <mxCell id="uUpJZm7nk99lA5vfuliC-46" value="+ Переходы" style="text;html=1;strokeColor=#36393d;fillColor=#ffcc99;align=left;verticalAlign=middle;spacingLeft=4;spacingRight=4;overflow=hidden;rotatable=0;points=[[0,0.5],[1,0.5]];portConstraint=eastwest;" parent="uUpJZm7nk99lA5vfuliC-44" vertex="1">
          <mxGeometry y="54" width="140" height="25" as="geometry" />
        </mxCell>
        <mxCell id="uUpJZm7nk99lA5vfuliC-47" value="+ Функции переходов" style="text;html=1;strokeColor=#36393d;fillColor=#ffcc99;align=left;verticalAlign=middle;spacingLeft=4;spacingRight=4;overflow=hidden;rotatable=0;points=[[0,0.5],[1,0.5]];portConstraint=eastwest;" parent="uUpJZm7nk99lA5vfuliC-44" vertex="1">
          <mxGeometry y="79" width="140" height="25" as="geometry" />
        </mxCell>
        <mxCell id="uUpJZm7nk99lA5vfuliC-48" value="" style="endArrow=none;html=1;rounded=0;startArrow=diamondThin;startFill=1;entryX=1.005;entryY=0.146;entryDx=0;entryDy=0;entryPerimeter=0;exitX=0;exitY=0.5;exitDx=0;exitDy=0;" parent="1" source="uUpJZm7nk99lA5vfuliC-5" target="uUpJZm7nk99lA5vfuliC-44" edge="1">
          <mxGeometry width="50" height="50" relative="1" as="geometry">
            <mxPoint x="534" y="390" as="sourcePoint" />
            <mxPoint x="534" y="310" as="targetPoint" />
          </mxGeometry>
        </mxCell>
        <mxCell id="uUpJZm7nk99lA5vfuliC-49" value="Результат выполнения" style="rounded=0;whiteSpace=wrap;html=1;fillColor=#ffcc99;strokeColor=#36393d;" parent="1" vertex="1">
          <mxGeometry x="70" y="520" width="120" height="40" as="geometry" />
        </mxCell>
        <mxCell id="uUpJZm7nk99lA5vfuliC-50" value="" style="endArrow=none;html=1;rounded=0;entryX=0;entryY=0.5;entryDx=0;entryDy=0;exitX=0;exitY=0.5;exitDx=0;exitDy=0;" parent="1" source="uUpJZm7nk99lA5vfuliC-49" target="uUpJZm7nk99lA5vfuliC-3" edge="1">
          <mxGeometry width="50" height="50" relative="1" as="geometry">
            <mxPoint x="250" y="410" as="sourcePoint" />
            <mxPoint x="300" y="360" as="targetPoint" />
            <Array as="points">
              <mxPoint x="-10" y="540" />
              <mxPoint x="-10" y="230" />
            </Array>
          </mxGeometry>
        </mxCell>
        <mxCell id="uUpJZm7nk99lA5vfuliC-51" value="-Пользователь программы" style="text;html=1;strokeColor=none;fillColor=none;align=center;verticalAlign=middle;whiteSpace=wrap;rounded=0;" parent="1" vertex="1">
          <mxGeometry x="-30" y="200" width="120" height="30" as="geometry" />
        </mxCell>
        <mxCell id="uUpJZm7nk99lA5vfuliC-52" value="" style="endArrow=none;html=1;rounded=0;exitX=1;exitY=0.04;exitDx=0;exitDy=0;exitPerimeter=0;entryX=0;entryY=0.25;entryDx=0;entryDy=0;" parent="1" source="uUpJZm7nk99lA5vfuliC-43" target="uUpJZm7nk99lA5vfuliC-7" edge="1">
          <mxGeometry width="50" height="50" relative="1" as="geometry">
            <mxPoint x="250" y="400" as="sourcePoint" />
            <mxPoint x="300" y="350" as="targetPoint" />
            <Array as="points">
              <mxPoint x="410" y="450" />
              <mxPoint x="410" y="385" />
            </Array>
          </mxGeometry>
        </mxCell>
        <mxCell id="uUpJZm7nk99lA5vfuliC-53" value="" style="endArrow=none;dashed=1;html=1;rounded=0;exitX=0.5;exitY=0;exitDx=0;exitDy=0;" parent="1" source="uUpJZm7nk99lA5vfuliC-49" edge="1">
          <mxGeometry width="50" height="50" relative="1" as="geometry">
            <mxPoint x="250" y="400" as="sourcePoint" />
            <mxPoint x="280" y="450" as="targetPoint" />
            <Array as="points">
              <mxPoint x="130" y="490" />
              <mxPoint x="280" y="490" />
            </Array>
          </mxGeometry>
        </mxCell>
        <mxCell id="uUpJZm7nk99lA5vfuliC-54" value="Результат выполнения" style="text;html=1;strokeColor=none;fillColor=none;align=center;verticalAlign=middle;whiteSpace=wrap;rounded=0;" parent="1" vertex="1">
          <mxGeometry x="170" y="490" width="180" height="30" as="geometry" />
        </mxCell>
        <mxCell id="uUpJZm7nk99lA5vfuliC-56" value="" style="endArrow=none;html=1;rounded=0;entryX=0.994;entryY=0.044;entryDx=0;entryDy=0;exitX=0.5;exitY=1;exitDx=0;exitDy=0;startArrow=diamondThin;startFill=1;entryPerimeter=0;" parent="1" source="uUpJZm7nk99lA5vfuliC-8" target="uUpJZm7nk99lA5vfuliC-43" edge="1">
          <mxGeometry width="50" height="50" relative="1" as="geometry">
            <mxPoint x="634" y="400" as="sourcePoint" />
            <mxPoint x="594" y="300" as="targetPoint" />
            <Array as="points">
              <mxPoint x="684" y="450" />
            </Array>
          </mxGeometry>
        </mxCell>
        <mxCell id="uUpJZm7nk99lA5vfuliC-58" value="" style="endArrow=none;html=1;rounded=0;exitX=0.5;exitY=0;exitDx=0;exitDy=0;entryX=1;entryY=1;entryDx=0;entryDy=0;" parent="1" source="uUpJZm7nk99lA5vfuliC-63" target="uUpJZm7nk99lA5vfuliC-83" edge="1">
          <mxGeometry width="50" height="50" relative="1" as="geometry">
            <mxPoint x="684" y="280" as="sourcePoint" />
            <mxPoint x="370" y="370" as="targetPoint" />
            <Array as="points">
              <mxPoint x="684" y="170" />
              <mxPoint x="-40" y="170" />
              <mxPoint x="-40" y="450" />
            </Array>
          </mxGeometry>
        </mxCell>
        <mxCell id="uUpJZm7nk99lA5vfuliC-59" value="Скомпилированная программа" style="rounded=0;whiteSpace=wrap;html=1;fillColor=#ffcc99;strokeColor=#36393d;" parent="1" vertex="1">
          <mxGeometry x="584" y="520" width="120" height="40" as="geometry" />
        </mxCell>
        <mxCell id="uUpJZm7nk99lA5vfuliC-60" value="" style="endArrow=none;html=1;rounded=0;entryX=1;entryY=0.5;entryDx=0;entryDy=0;exitX=1;exitY=0.5;exitDx=0;exitDy=0;" parent="1" source="uUpJZm7nk99lA5vfuliC-59" target="uUpJZm7nk99lA5vfuliC-8" edge="1">
          <mxGeometry width="50" height="50" relative="1" as="geometry">
            <mxPoint x="320" y="420" as="sourcePoint" />
            <mxPoint x="370" y="370" as="targetPoint" />
            <Array as="points">
              <mxPoint x="790" y="540" />
              <mxPoint x="790" y="390" />
            </Array>
          </mxGeometry>
        </mxCell>
        <mxCell id="uUpJZm7nk99lA5vfuliC-61" value="" style="endArrow=none;dashed=1;html=1;rounded=0;exitX=1;exitY=0.5;exitDx=0;exitDy=0;entryX=0;entryY=0.5;entryDx=0;entryDy=0;" parent="1" source="uUpJZm7nk99lA5vfuliC-49" target="uUpJZm7nk99lA5vfuliC-59" edge="1">
          <mxGeometry width="50" height="50" relative="1" as="geometry">
            <mxPoint x="320" y="420" as="sourcePoint" />
            <mxPoint x="370" y="370" as="targetPoint" />
          </mxGeometry>
        </mxCell>
        <mxCell id="uUpJZm7nk99lA5vfuliC-62" value="Результат выполнения" style="text;html=1;strokeColor=none;fillColor=none;align=center;verticalAlign=middle;whiteSpace=wrap;rounded=0;" parent="1" vertex="1">
          <mxGeometry x="290" y="540" width="180" height="30" as="geometry" />
        </mxCell>
        <mxCell id="uUpJZm7nk99lA5vfuliC-63" value="Синтаксис" style="swimlane;fontStyle=1;align=center;verticalAlign=middle;childLayout=stackLayout;horizontal=1;startSize=29;horizontalStack=0;resizeParent=1;resizeParentMax=0;resizeLast=0;collapsible=0;marginBottom=0;html=1;fillColor=#ffcc99;strokeColor=#36393d;" parent="1" vertex="1">
          <mxGeometry x="614" y="280" width="140" height="54" as="geometry" />
        </mxCell>
        <mxCell id="uUpJZm7nk99lA5vfuliC-64" value="+ Грамматика" style="text;html=1;strokeColor=#36393d;fillColor=#ffcc99;align=left;verticalAlign=middle;spacingLeft=4;spacingRight=4;overflow=hidden;rotatable=0;points=[[0,0.5],[1,0.5]];portConstraint=eastwest;" parent="uUpJZm7nk99lA5vfuliC-63" vertex="1">
          <mxGeometry y="29" width="140" height="25" as="geometry" />
        </mxCell>
        <mxCell id="uUpJZm7nk99lA5vfuliC-67" value="1" style="text;html=1;strokeColor=none;fillColor=none;align=center;verticalAlign=middle;whiteSpace=wrap;rounded=0;" parent="1" vertex="1">
          <mxGeometry x="444" y="260" width="20" height="30" as="geometry" />
        </mxCell>
        <mxCell id="uUpJZm7nk99lA5vfuliC-68" value="1" style="text;html=1;strokeColor=none;fillColor=none;align=center;verticalAlign=middle;whiteSpace=wrap;rounded=0;" parent="1" vertex="1">
          <mxGeometry x="500" y="300" width="20" height="30" as="geometry" />
        </mxCell>
        <mxCell id="uUpJZm7nk99lA5vfuliC-69" value="1" style="text;html=1;strokeColor=none;fillColor=none;align=center;verticalAlign=middle;whiteSpace=wrap;rounded=0;" parent="1" vertex="1">
          <mxGeometry x="500" y="350" width="20" height="30" as="geometry" />
        </mxCell>
        <mxCell id="uUpJZm7nk99lA5vfuliC-70" value="1" style="text;html=1;strokeColor=none;fillColor=none;align=center;verticalAlign=middle;whiteSpace=wrap;rounded=0;" parent="1" vertex="1">
          <mxGeometry x="584" y="260" width="20" height="30" as="geometry" />
        </mxCell>
        <mxCell id="uUpJZm7nk99lA5vfuliC-71" value="1" style="text;html=1;strokeColor=none;fillColor=none;align=center;verticalAlign=middle;whiteSpace=wrap;rounded=0;" parent="1" vertex="1">
          <mxGeometry x="600" y="360" width="24" height="30" as="geometry" />
        </mxCell>
        <mxCell id="uUpJZm7nk99lA5vfuliC-72" value="1" style="text;html=1;strokeColor=none;fillColor=none;align=center;verticalAlign=middle;whiteSpace=wrap;rounded=0;" parent="1" vertex="1">
          <mxGeometry x="760" y="280" width="20" height="30" as="geometry" />
        </mxCell>
        <mxCell id="uUpJZm7nk99lA5vfuliC-73" value="1" style="text;html=1;strokeColor=none;fillColor=none;align=center;verticalAlign=middle;whiteSpace=wrap;rounded=0;" parent="1" vertex="1">
          <mxGeometry x="660" y="330" width="20" height="30" as="geometry" />
        </mxCell>
        <mxCell id="uUpJZm7nk99lA5vfuliC-74" value="1" style="text;html=1;strokeColor=none;fillColor=none;align=center;verticalAlign=middle;whiteSpace=wrap;rounded=0;" parent="1" vertex="1">
          <mxGeometry x="684" y="350" width="20" height="30" as="geometry" />
        </mxCell>
        <mxCell id="uUpJZm7nk99lA5vfuliC-75" value="1" style="text;html=1;strokeColor=none;fillColor=none;align=center;verticalAlign=middle;whiteSpace=wrap;rounded=0;" parent="1" vertex="1">
          <mxGeometry x="500" y="400" width="20" height="30" as="geometry" />
        </mxCell>
        <mxCell id="uUpJZm7nk99lA5vfuliC-76" value="1" style="text;html=1;strokeColor=none;fillColor=none;align=center;verticalAlign=middle;whiteSpace=wrap;rounded=0;" parent="1" vertex="1">
          <mxGeometry x="690" y="250" width="20" height="30" as="geometry" />
        </mxCell>
        <mxCell id="uUpJZm7nk99lA5vfuliC-77" value="1..*" style="text;html=1;strokeColor=none;fillColor=none;align=center;verticalAlign=middle;whiteSpace=wrap;rounded=0;" parent="1" vertex="1">
          <mxGeometry x="200" y="420" width="20" height="30" as="geometry" />
        </mxCell>
        <mxCell id="uUpJZm7nk99lA5vfuliC-79" value="1" style="text;html=1;strokeColor=none;fillColor=none;align=center;verticalAlign=middle;whiteSpace=wrap;rounded=0;" parent="1" vertex="1">
          <mxGeometry x="660" y="400" width="20" height="30" as="geometry" />
        </mxCell>
        <mxCell id="uUpJZm7nk99lA5vfuliC-81" value="1" style="text;html=1;strokeColor=none;fillColor=none;align=center;verticalAlign=middle;whiteSpace=wrap;rounded=0;" parent="1" vertex="1">
          <mxGeometry x="704" y="370" width="20" height="30" as="geometry" />
        </mxCell>
        <mxCell id="uUpJZm7nk99lA5vfuliC-82" value="1..*" style="text;html=1;strokeColor=none;fillColor=none;align=center;verticalAlign=middle;whiteSpace=wrap;rounded=0;" parent="1" vertex="1">
          <mxGeometry x="390" y="260" width="20" height="30" as="geometry" />
        </mxCell>
        <mxCell id="uUpJZm7nk99lA5vfuliC-83" value="1..*" style="text;html=1;strokeColor=none;fillColor=none;align=center;verticalAlign=middle;whiteSpace=wrap;rounded=0;" parent="1" vertex="1">
          <mxGeometry x="40" y="420" width="20" height="30" as="geometry" />
        </mxCell>
        <mxCell id="uUpJZm7nk99lA5vfuliC-85" value="AST" style="rounded=0;whiteSpace=wrap;html=1;fillColor=#ffcc99;strokeColor=#36393d;" parent="1" vertex="1">
          <mxGeometry x="760" y="150" width="60" height="20" as="geometry" />
        </mxCell>
        <mxCell id="uUpJZm7nk99lA5vfuliC-86" value="" style="endArrow=none;dashed=1;html=1;rounded=0;entryX=0;entryY=0.5;entryDx=0;entryDy=0;exitX=0;exitY=1;exitDx=0;exitDy=0;" parent="1" target="uUpJZm7nk99lA5vfuliC-85" edge="1" source="uUpJZm7nk99lA5vfuliC-87">
          <mxGeometry width="50" height="50" relative="1" as="geometry">
            <mxPoint x="680" y="170" as="sourcePoint" />
            <mxPoint x="719" y="170" as="targetPoint" />
          </mxGeometry>
        </mxCell>
        <mxCell id="uUpJZm7nk99lA5vfuliC-87" value="AST" style="text;html=1;strokeColor=none;fillColor=none;align=center;verticalAlign=middle;whiteSpace=wrap;rounded=0;" parent="1" vertex="1">
          <mxGeometry x="684" y="140" width="60" height="30" as="geometry" />
        </mxCell>
        <mxCell id="uUpJZm7nk99lA5vfuliC-89" value="" style="shape=mxgraph.arrows2.wedgeArrow;html=1;bendable=0;startWidth=6.206896551724139;fillColor=strokeColor;defaultFillColor=invert;defaultGradientColor=invert;rounded=0;startArrow=diamondThin;startFill=1;" parent="1" edge="1">
          <mxGeometry width="100" height="100" relative="1" as="geometry">
            <mxPoint x="140" y="330" as="sourcePoint" />
            <mxPoint x="140" y="360" as="targetPoint" />
          </mxGeometry>
        </mxCell>
        <mxCell id="uUpJZm7nk99lA5vfuliC-90" value="" style="shape=mxgraph.arrows2.wedgeArrow;html=1;bendable=0;startWidth=6.206896551724139;fillColor=strokeColor;defaultFillColor=invert;defaultGradientColor=invert;rounded=0;startArrow=diamondThin;startFill=1;" parent="1" edge="1">
          <mxGeometry width="100" height="100" relative="1" as="geometry">
            <mxPoint y="300" as="sourcePoint" />
            <mxPoint y="330" as="targetPoint" />
          </mxGeometry>
        </mxCell>
        <mxCell id="uUpJZm7nk99lA5vfuliC-91" value="пишет" style="text;html=1;strokeColor=none;fillColor=none;align=center;verticalAlign=middle;whiteSpace=wrap;rounded=0;" parent="1" vertex="1">
          <mxGeometry x="140" y="330" width="60" height="30" as="geometry" />
        </mxCell>
        <mxCell id="uUpJZm7nk99lA5vfuliC-92" value="запрашивает" style="text;html=1;strokeColor=none;fillColor=none;align=center;verticalAlign=middle;whiteSpace=wrap;rounded=0;" parent="1" vertex="1">
          <mxGeometry x="10" y="300" width="70" height="30" as="geometry" />
        </mxCell>
      </root>
    </mxGraphModel>
  </diagram>
</mxfile>
